<svg width="23" height="23" viewBox="0 0 23 23" fill="none" xmlns="http://www.w3.org/2000/svg">
<path d="M11.5 23C8.45001 23 5.52494 21.7884 3.36827 19.6317C1.2116 17.4751 0 14.55 0 11.5C0 8.45001 1.2116 5.52494 3.36827 3.36827C5.52494 1.2116 8.45001 0 11.5 0C14.55 0 17.4751 1.2116 19.6317 3.36827C21.7884 5.52494 23 8.45001 23 11.5C23 14.55 21.7884 17.4751 19.6317 19.6317C17.4751 21.7884 14.55 23 11.5 23ZM11.5 20.7C13.94 20.7 16.28 19.7307 18.0054 18.0054C19.7307 16.28 20.7 13.94 20.7 11.5C20.7 9.06001 19.7307 6.71995 18.0054 4.99462C16.28 3.26928 13.94 2.3 11.5 2.3C9.06001 2.3 6.71995 3.26928 4.99462 4.99462C3.26928 6.71995 2.3 9.06001 2.3 11.5C2.3 13.94 3.26928 16.28 4.99462 18.0054C6.71995 19.7307 9.06001 20.7 11.5 20.7ZM17.25 10.35V12.65H5.75V10.35H17.25Z" fill="#FF2525"/>
</svg>
