<svg width="200" height="200" viewBox="0 0 200 200" fill="none" xmlns="http://www.w3.org/2000/svg">
<circle cx="100" cy="100" r="100" fill="black"/>
<path d="M100 156C92.0733 156 84.5817 154.477 77.525 151.43C70.4683 148.383 64.3068 144.226 59.0404 138.96C53.774 133.693 49.6173 127.532 46.5704 120.475C43.5235 113.418 42 105.927 42 98C42 89.9767 43.5718 82.4367 46.7154 75.38C49.859 68.3233 54.1123 62.185 59.4754 56.965C64.8385 51.745 71.0967 47.6135 78.25 44.5704C85.4033 41.5273 93.04 40.0039 101.16 40C108.893 40 116.192 41.3301 123.055 43.9904C129.918 46.6507 135.937 50.324 141.11 55.0104C146.284 59.6968 150.392 65.2551 153.435 71.6854C156.478 78.1157 158 85.0505 158 92.49C158 103.607 154.617 112.138 147.85 118.085C141.083 124.032 132.867 127.004 123.2 127H112.47C111.6 127 110.997 127.242 110.66 127.725C110.324 128.208 110.154 128.74 110.15 129.32C110.15 130.48 110.875 132.148 112.325 134.325C113.775 136.502 114.5 138.991 114.5 141.79C114.5 146.623 113.172 150.2 110.515 152.52C107.859 154.84 104.354 156 100 156ZM68.1 103.8C70.6133 103.8 72.6917 102.978 74.335 101.335C75.9783 99.6917 76.8 97.6133 76.8 95.1C76.8 92.5867 75.9783 90.5083 74.335 88.865C72.6917 87.2217 70.6133 86.4 68.1 86.4C65.5867 86.4 63.5083 87.2217 61.865 88.865C60.2217 90.5083 59.4 92.5867 59.4 95.1C59.4 97.6133 60.2217 99.6917 61.865 101.335C63.5083 102.978 65.5867 103.8 68.1 103.8ZM85.5 80.6C88.0133 80.6 90.0917 79.7783 91.735 78.135C93.3783 76.4917 94.2 74.4133 94.2 71.9C94.2 69.3867 93.3783 67.3083 91.735 65.665C90.0917 64.0217 88.0133 63.2 85.5 63.2C82.9867 63.2 80.9083 64.0217 79.265 65.665C77.6217 67.3083 76.8 69.3867 76.8 71.9C76.8 74.4133 77.6217 76.4917 79.265 78.135C80.9083 79.7783 82.9867 80.6 85.5 80.6ZM114.5 80.6C117.013 80.6 119.092 79.7783 120.735 78.135C122.378 76.4917 123.2 74.4133 123.2 71.9C123.2 69.3867 122.378 67.3083 120.735 65.665C119.092 64.0217 117.013 63.2 114.5 63.2C111.987 63.2 109.908 64.0217 108.265 65.665C106.622 67.3083 105.8 69.3867 105.8 71.9C105.8 74.4133 106.622 76.4917 108.265 78.135C109.908 79.7783 111.987 80.6 114.5 80.6ZM131.9 103.8C134.413 103.8 136.492 102.978 138.135 101.335C139.778 99.6917 140.6 97.6133 140.6 95.1C140.6 92.5867 139.778 90.5083 138.135 88.865C136.492 87.2217 134.413 86.4 131.9 86.4C129.387 86.4 127.308 87.2217 125.665 88.865C124.022 90.5083 123.2 92.5867 123.2 95.1C123.2 97.6133 124.022 99.6917 125.665 101.335C127.308 102.978 129.387 103.8 131.9 103.8ZM100 144.4C100.87 144.4 101.572 144.158 102.105 143.675C102.639 143.192 102.904 142.563 102.9 141.79C102.9 140.437 102.175 138.842 100.725 137.005C99.275 135.168 98.55 132.413 98.55 128.74C98.55 124.68 99.9517 121.442 102.755 119.025C105.558 116.608 108.99 115.4 113.05 115.4H123.2C129.58 115.4 135.042 113.54 139.585 109.82C144.128 106.101 146.4 100.324 146.4 92.49C146.4 80.7933 141.93 71.0532 132.99 63.2696C124.051 55.486 113.441 51.5961 101.16 51.6C88.0133 51.6 76.8 56.095 67.52 65.085C58.24 74.075 53.6 85.0467 53.6 98C53.6 110.857 58.1201 121.805 67.1604 130.845C76.2007 139.886 87.1472 144.404 100 144.4Z" fill="white"/>
</svg>
