<svg width="200" height="200" viewBox="0 0 200 200" fill="none" xmlns="http://www.w3.org/2000/svg">
<g clip-path="url(#clip0_41_133)">
<g clip-path="url(#clip1_41_133)">
<mask id="mask0_41_133" style="mask-type:luminance" maskUnits="userSpaceOnUse" x="0" y="0" width="200" height="200">
<path d="M0 0H200V200H0V0Z" fill="white"/>
<path fill-rule="evenodd" clip-rule="evenodd" d="M110.269 46.3846C107.078 44.7989 103.563 43.9737 100 43.9737C96.4368 43.9737 92.9219 44.7989 89.7308 46.3846L61.7616 60.2769C54.4539 63.9076 49.9385 70.8461 50.0078 78.3077C50.1308 91.9538 51.6231 109.308 56.9308 120.438C62.8231 132.8 77.3155 145.608 89.3616 154.592C95.7462 159.354 104.254 159.354 110.639 154.592C122.685 145.608 137.177 132.8 143.069 120.438C148.377 109.308 149.869 91.9538 149.992 78.3077C150.062 70.8461 145.539 63.9076 138.239 60.2769L110.269 46.3846ZM82.8847 32.6077C88.2031 29.9649 94.0612 28.5896 100 28.5896C105.939 28.5896 111.797 29.9649 117.115 32.6077L145.085 46.5C157.023 52.4384 165.5 64.4153 165.377 78.4461C165.254 92.1769 163.862 112.592 156.954 127.061C149.277 143.169 131.923 157.908 119.839 166.931C114.119 171.233 107.157 173.56 100 173.56C92.8434 173.56 85.8807 171.233 80.1616 166.931C68.077 157.915 50.7232 143.161 43.0462 127.061C36.1385 112.592 34.7462 92.1769 34.6231 78.4461C34.5001 64.4153 42.977 52.4384 54.9155 46.5L82.8847 32.6077Z" fill="black"/>
</mask>
<g mask="url(#mask0_41_133)">
<path d="M100 200C155.228 200 200 155.228 200 100C200 44.7715 155.228 0 100 0C44.7715 0 0 44.7715 0 100C0 155.228 44.7715 200 100 200Z" fill="black"/>
</g>
</g>
</g>
<defs>
<clipPath id="clip0_41_133">
<rect width="200" height="200" fill="white"/>
</clipPath>
<clipPath id="clip1_41_133">
<rect width="200" height="200" fill="white"/>
</clipPath>
</defs>
</svg>
