<svg width="200" height="200" viewBox="0 0 200 200" fill="none" xmlns="http://www.w3.org/2000/svg">
<mask id="mask0_41_144" style="mask-type:luminance" maskUnits="userSpaceOnUse" x="0" y="0" width="200" height="200">
<path d="M0 0H200V200H0V0Z" fill="white"/>
<path fill-rule="evenodd" clip-rule="evenodd" d="M125.831 80.6615C126.877 82.4112 127.186 84.5048 126.69 86.4822C126.194 88.4597 124.933 90.1593 123.185 91.2077L107.692 100.515V169.231C107.692 171.271 106.882 173.227 105.439 174.67C103.997 176.113 102.04 176.923 100 176.923C97.9599 176.923 96.0033 176.113 94.5607 174.67C93.1181 173.227 92.3077 171.271 92.3077 169.231V119.738L76.8077 110.438C75.0986 109.369 73.8778 107.671 73.4078 105.711C72.9379 103.75 73.2564 101.684 74.2949 99.9555C75.3333 98.2274 77.0087 96.9761 78.9604 96.4709C80.9121 95.9656 82.9842 96.2467 84.7307 97.2538L92.3077 101.792V69.2308C92.3077 67.1906 93.1181 65.2341 94.5607 63.7915C96.0033 62.3489 97.9599 61.5384 100 61.5384C102.04 61.5384 103.997 62.3489 105.439 63.7915C106.882 65.2341 107.692 67.1906 107.692 69.2308V82.5692L115.277 78.0231C117.025 76.9727 119.119 76.6598 121.099 77.1532C123.078 77.6465 124.78 78.9057 125.831 80.6538M99.2307 38.4615C94.2769 38.4615 89.6846 40.4307 86.0769 43.8461C84.0615 45.7692 82.3692 48.1538 81.1461 50.8538C80.7304 51.7746 80.1375 52.6045 79.4011 53.2961C78.6647 53.9877 77.7992 54.5275 76.8542 54.8846C74.9457 55.6059 72.8288 55.5395 70.9692 54.7C69.1096 53.8605 67.6597 52.3166 66.9384 50.4081C66.2171 48.4995 66.2835 46.3826 67.1231 44.5231C69.1199 40.0786 71.9594 36.0635 75.4846 32.7C81.8646 26.5528 90.3712 23.1056 99.2307 23.0769C108.423 23.0769 116.746 26.7692 122.977 32.7C126.469 36.0154 129.315 40.0384 131.338 44.5231C131.754 45.4438 131.984 46.4375 132.016 47.4472C132.048 48.457 131.88 49.4631 131.523 50.4081C131.166 51.3531 130.626 52.2185 129.935 52.9549C129.243 53.6913 128.413 54.2843 127.492 54.7C126.572 55.1157 125.578 55.3459 124.568 55.3776C123.558 55.4093 122.552 55.2418 121.607 54.8846C119.699 54.1633 118.155 52.7134 117.315 50.8538C116.137 48.2234 114.46 45.8462 112.377 43.8538C108.857 40.4238 104.145 38.4911 99.2307 38.4615Z" fill="black"/>
<path fill-rule="evenodd" clip-rule="evenodd" d="M116.792 48.4154C116.597 46.3749 117.208 44.3391 118.495 42.7434C119.781 41.1477 121.641 40.1188 123.677 39.8769C143.723 37.5769 160.769 53.1462 162.769 73.3385C164.123 86.9692 158.438 99.9 148.508 107.715C147.721 108.347 146.818 108.816 145.848 109.096C144.879 109.375 143.864 109.46 142.863 109.344C141.861 109.228 140.892 108.914 140.012 108.421C139.132 107.927 138.36 107.264 137.738 106.469C136.503 104.842 135.958 102.795 136.222 100.769C136.485 98.7433 137.536 96.9029 139.146 95.6462C144.762 91.2231 148.323 83.5692 147.485 75.0923C146.215 62.3 135.777 53.9769 125.192 55.1923C124.194 55.3117 123.182 55.2304 122.216 54.9529C121.25 54.6755 120.349 54.2077 119.566 53.577C118.784 52.9463 118.135 52.1654 117.659 51.2803C117.182 50.3952 116.888 49.416 116.792 48.4154Z" fill="black"/>
<path fill-rule="evenodd" clip-rule="evenodd" d="M141.669 95.023C143.661 94.5556 145.758 94.8906 147.505 95.9557C149.252 97.0208 150.51 98.7304 151.008 100.715C152.015 104.692 152.385 108.938 152.008 113.269C150.354 132.215 132.731 145.246 115.992 143.554C111.454 143.092 106.569 142.215 102.215 139.692C97.5616 137 94.277 132.877 92.1 127.385C91.7225 126.451 91.5339 125.451 91.5453 124.444C91.5566 123.437 91.7677 122.442 92.1661 121.517C92.5646 120.592 93.1427 119.755 93.8668 119.055C94.5909 118.355 95.4467 117.805 96.3847 117.438C98.2971 116.714 100.418 116.773 102.287 117.603C104.156 118.432 105.623 119.965 106.369 121.869C107.469 124.654 108.654 125.738 109.769 126.385C111.185 127.208 113.385 127.823 117.331 128.231C125.946 129.1 135.815 121.885 136.7 111.723C136.931 109.108 136.7 106.615 136.123 104.315C135.869 103.341 135.811 102.326 135.952 101.33C136.094 100.333 136.432 99.3746 136.947 98.5099C137.463 97.6452 138.145 96.8916 138.954 96.293C139.764 95.6944 140.692 95.2627 141.669 95.023ZM81.7 48.4153C81.8952 46.3748 81.2841 44.339 79.9975 42.7433C78.7109 41.1476 76.8509 40.1187 74.8154 39.8769C54.7693 37.5846 37.7308 53.1538 35.7231 73.3461C34.377 86.9769 40.0539 99.9076 49.9924 107.723C50.7786 108.355 51.6825 108.824 52.6516 109.103C53.6206 109.383 54.6356 109.467 55.6375 109.351C56.6394 109.235 57.6083 108.922 58.4879 108.428C59.3675 107.935 60.1404 107.271 60.7616 106.477C61.9969 104.85 62.5417 102.802 62.2783 100.777C62.0148 98.7509 60.9642 96.9105 59.3539 95.6538C53.7308 91.2307 50.1693 83.5769 51.0077 75.0999C52.277 62.3076 62.7154 53.9769 73.3077 55.1922C74.3058 55.3117 75.3177 55.2303 76.2838 54.9529C77.25 54.6755 78.1509 54.2076 78.9335 53.5769C79.7162 52.9462 80.3648 52.1653 80.8413 51.2802C81.3177 50.3951 81.6123 49.4237 81.7077 48.423" fill="black"/>
<path fill-rule="evenodd" clip-rule="evenodd" d="M56.8308 95.023C54.8375 94.5534 52.7394 94.8873 50.9904 95.9525C49.2414 97.0178 47.982 98.7287 47.4847 100.715C46.4497 104.814 46.1116 109.058 46.4847 113.269C48.1462 132.215 65.7693 145.246 82.5001 143.554C87.0462 143.092 91.9308 142.215 96.2847 139.692C100.939 137 104.223 132.877 106.4 127.385C106.778 126.451 106.966 125.451 106.955 124.444C106.943 123.437 106.732 122.442 106.334 121.517C105.935 120.592 105.357 119.755 104.633 119.055C103.909 118.355 103.053 117.806 102.115 117.438C100.203 116.714 98.0822 116.773 96.213 117.603C94.3438 118.432 92.8771 119.965 92.1308 121.869C91.0308 124.654 89.8462 125.738 88.7231 126.385C87.3078 127.208 85.1154 127.823 81.1693 128.231C72.5539 129.1 62.6847 121.885 61.8001 111.723C61.5693 109.108 61.8001 106.615 62.377 104.315C62.6312 103.341 62.689 102.325 62.547 101.328C62.405 100.331 62.0661 99.3725 61.5499 98.5077C61.0338 97.6429 60.3507 96.8894 59.5405 96.2912C58.7303 95.6929 57.8092 95.2618 56.8308 95.023Z" fill="black"/>
</mask>
<g mask="url(#mask0_41_144)">
<path d="M100 200C155.228 200 200 155.228 200 100C200 44.7715 155.228 0 100 0C44.7715 0 0 44.7715 0 100C0 155.228 44.7715 200 100 200Z" fill="black"/>
</g>
</svg>
